<?xml version="1.0" encoding="UTF-8"?>
<!DOCTYPE score-partwise PUBLIC "-//Recordare//DTD MusicXML 3.1 Partwise//EN" "http://www.musicxml.org/dtds/partwise.dtd">
<score-partwise version="3.1">
  <identification>
    <encoding>
      <software>MuseScore 3.4.2</software>
      <encoding-date>2020-06-01</encoding-date>
      <supports element="accidental" type="yes"/>
      <supports element="beam" type="yes"/>
      <supports element="print" attribute="new-page" type="yes" value="yes"/>
      <supports element="print" attribute="new-system" type="yes" value="yes"/>
      <supports element="stem" type="yes"/>
      </encoding>
    </identification>
  <defaults>
    <scaling>
      <millimeters>7.05556</millimeters>
      <tenths>40</tenths>
      </scaling>
    <page-layout>
      <page-height>1683.78</page-height>
      <page-width>1190.55</page-width>
      <page-margins type="even">
        <left-margin>56.6929</left-margin>
        <right-margin>56.6929</right-margin>
        <top-margin>56.6929</top-margin>
        <bottom-margin>113.386</bottom-margin>
        </page-margins>
      <page-margins type="odd">
        <left-margin>56.6929</left-margin>
        <right-margin>56.6929</right-margin>
        <top-margin>56.6929</top-margin>
        <bottom-margin>113.386</bottom-margin>
        </page-margins>
      </page-layout>
    <word-font font-family="FreeSerif" font-size="10"/>
    <lyric-font font-family="FreeSerif" font-size="11"/>
    </defaults>
  <part-list>
    <score-part id="P1">
      <part-name>ピアノ, pjs009</part-name>
      <part-abbreviation>Pno.</part-abbreviation>
      <score-instrument id="P1-I1">
        <instrument-name>ピアノ</instrument-name>
        </score-instrument>
      <midi-device id="P1-I1" port="1"></midi-device>
      <midi-instrument id="P1-I1">
        <midi-channel>1</midi-channel>
        <midi-program>1</midi-program>
        <volume>78.7402</volume>
        <pan>0</pan>
        </midi-instrument>
      </score-part>
    </part-list>
  <part id="P1">
    <measure number="1" width="167.31">
      <print>
        <system-layout>
          <system-margins>
            <left-margin>0.00</left-margin>
            <right-margin>0.00</right-margin>
            </system-margins>
          <top-system-distance>70.00</top-system-distance>
          </system-layout>
        </print>
      <attributes>
        <divisions>2</divisions>
        <key>
          <fifths>2</fifths>
          </key>
        <time>
          <beats>4</beats>
          <beat-type>4</beat-type>
          </time>
        <clef>
          <sign>F</sign>
          <line>4</line>
          </clef>
        </attributes>
      <direction placement="above">
        <direction-type>
          <metronome parentheses="no" default-x="-35.96" relative-y="20.00">
            <beat-unit>quarter</beat-unit>
            <per-minute>130</per-minute>
            </metronome>
          </direction-type>
        <sound tempo="130"/>
        </direction>
      <note>
        <rest/>
        <duration>8</duration>
        <voice>1</voice>
        </note>
      </measure>
    <measure number="2" width="169.80">
      <note default-x="10.62" default-y="-20.00" dynamics="111.11">
        <pitch>
          <step>D</step>
          <octave>3</octave>
          </pitch>
        <duration>2</duration>
        <voice>1</voice>
        <type>quarter</type>
        <stem>down</stem>
        <lyric number="1" default-x="6.58" default-y="-49.50" relative-y="-30.00">
          <syllabic>single</syllabic>
          <text>ま</text>
          </lyric>
        </note>
      <note default-x="45.31" default-y="5.00" dynamics="111.11">
        <pitch>
          <step>B</step>
          <octave>3</octave>
          </pitch>
        <duration>2</duration>
        <voice>1</voice>
        <type>quarter</type>
        <stem>down</stem>
        <lyric number="1" default-x="6.58" default-y="-49.50" relative-y="-30.00">
          <syllabic>single</syllabic>
          <text>た</text>
          </lyric>
        </note>
      <note default-x="80.00" default-y="0.00" dynamics="111.11">
        <pitch>
          <step>A</step>
          <octave>3</octave>
          </pitch>
        <duration>1</duration>
        <voice>1</voice>
        <type>eighth</type>
        <stem>down</stem>
        <beam number="1">begin</beam>
        <lyric number="1" default-x="6.58" default-y="-49.50" relative-y="-30.00">
          <syllabic>single</syllabic>
          <text>ね</text>
          </lyric>
        </note>
      <note default-x="101.68" default-y="-5.00" dynamics="111.11">
        <pitch>
          <step>G</step>
          <octave>3</octave>
          </pitch>
        <duration>1</duration>
        <voice>1</voice>
        <type>eighth</type>
        <stem>down</stem>
        <beam number="1">continue</beam>
        <lyric number="1" default-x="6.58" default-y="-49.50" relative-y="-30.00">
          <syllabic>single</syllabic>
          <text>じ</text>
          </lyric>
        </note>
      <note default-x="123.36" default-y="-10.00" dynamics="111.11">
        <pitch>
          <step>F</step>
          <alter>1</alter>
          <octave>3</octave>
          </pitch>
        <duration>1</duration>
        <voice>1</voice>
        <type>eighth</type>
        <stem>down</stem>
        <beam number="1">continue</beam>
        <lyric number="1" default-x="6.58" default-y="-49.50" relative-y="-30.00">
          <syllabic>single</syllabic>
          <text>め</text>
          </lyric>
        </note>
      <note default-x="145.04" default-y="-5.00" dynamics="111.11">
        <pitch>
          <step>G</step>
          <octave>3</octave>
          </pitch>
        <duration>1</duration>
        <voice>1</voice>
        <type>eighth</type>
        <stem>down</stem>
        <beam number="1">end</beam>
        <lyric number="1" default-x="6.58" default-y="-49.50" relative-y="-30.00">
          <syllabic>single</syllabic>
          <text>し</text>
          </lyric>
        </note>
      </measure>
    <measure number="3" width="196.90">
      <note default-x="12.22" default-y="0.00" dynamics="111.11">
        <pitch>
          <step>A</step>
          <octave>3</octave>
          </pitch>
        <duration>2</duration>
        <voice>1</voice>
        <type>quarter</type>
        <stem>down</stem>
        <lyric number="1" default-x="6.58" default-y="-49.50" relative-y="-30.00">
          <syllabic>single</syllabic>
          <text>わ</text>
          </lyric>
        </note>
      <note>
        <rest/>
        <duration>1</duration>
        <voice>1</voice>
        <type>eighth</type>
        </note>
      <note default-x="74.58" default-y="0.00" dynamics="111.11">
        <pitch>
          <step>A</step>
          <octave>3</octave>
          </pitch>
        <duration>1</duration>
        <voice>1</voice>
        <type>eighth</type>
        <stem>down</stem>
        <lyric number="1" default-x="6.58" default-y="-49.50" relative-y="-30.00">
          <syllabic>single</syllabic>
          <text>ちゅ</text>
          </lyric>
        </note>
      <note default-x="98.56" default-y="-5.00" dynamics="111.11">
        <pitch>
          <step>G</step>
          <octave>3</octave>
          </pitch>
        <duration>1</duration>
        <voice>1</voice>
        <type>eighth</type>
        <stem>down</stem>
        <beam number="1">begin</beam>
        <lyric number="1" default-x="6.58" default-y="-49.50" relative-y="-30.00">
          <syllabic>single</syllabic>
          <text>う</text>
          </lyric>
        </note>
      <note default-x="122.55" default-y="-10.00" dynamics="111.11">
        <pitch>
          <step>F</step>
          <alter>1</alter>
          <octave>3</octave>
          </pitch>
        <duration>1</duration>
        <voice>1</voice>
        <type>eighth</type>
        <stem>down</stem>
        <beam number="1">continue</beam>
        <lyric number="1" default-x="6.58" default-y="-49.50" relative-y="-30.00">
          <syllabic>single</syllabic>
          <text>ざ</text>
          </lyric>
        </note>
      <note default-x="146.53" default-y="-15.00" dynamics="111.11">
        <pitch>
          <step>E</step>
          <octave>3</octave>
          </pitch>
        <duration>1</duration>
        <voice>1</voice>
        <type>eighth</type>
        <stem>down</stem>
        <beam number="1">continue</beam>
        <lyric number="1" default-x="6.58" default-y="-49.50" relative-y="-30.00">
          <syllabic>single</syllabic>
          <text>ん</text>
          </lyric>
        </note>
      <note default-x="170.52" default-y="-10.00" dynamics="111.11">
        <pitch>
          <step>F</step>
          <alter>1</alter>
          <octave>3</octave>
          </pitch>
        <duration>1</duration>
        <voice>1</voice>
        <type>eighth</type>
        <stem>down</stem>
        <beam number="1">end</beam>
        <lyric number="1" default-x="6.58" default-y="-49.50" relative-y="-30.00">
          <syllabic>single</syllabic>
          <text>お</text>
          </lyric>
        </note>
      </measure>
    <measure number="4" width="173.94">
      <note default-x="11.62" default-y="-5.00" dynamics="111.11">
        <pitch>
          <step>G</step>
          <octave>3</octave>
          </pitch>
        <duration>2</duration>
        <voice>1</voice>
        <type>quarter</type>
        <stem>down</stem>
        <lyric number="1" default-x="6.58" default-y="-49.50" relative-y="-30.00">
          <syllabic>single</syllabic>
          <text>お</text>
          </lyric>
        </note>
      <note default-x="46.96" default-y="-5.00" dynamics="111.11">
        <pitch>
          <step>G</step>
          <octave>3</octave>
          </pitch>
        <duration>1</duration>
        <voice>1</voice>
        <type>eighth</type>
        <stem>down</stem>
        <beam number="1">begin</beam>
        <lyric number="1" default-x="6.58" default-y="-49.50" relative-y="-30.00">
          <syllabic>single</syllabic>
          <text>の</text>
          </lyric>
        </note>
      <note default-x="69.05" default-y="-5.00" dynamics="111.11">
        <pitch>
          <step>G</step>
          <octave>3</octave>
          </pitch>
        <duration>1</duration>
        <voice>1</voice>
        <type>eighth</type>
        <stem>down</stem>
        <beam number="1">end</beam>
        <lyric number="1" default-x="6.58" default-y="-49.50" relative-y="-30.00">
          <syllabic>single</syllabic>
          <text>お</text>
          </lyric>
        </note>
      <note default-x="91.13" default-y="-10.00" dynamics="111.11">
        <pitch>
          <step>F</step>
          <alter>1</alter>
          <octave>3</octave>
          </pitch>
        <duration>2</duration>
        <voice>1</voice>
        <type>quarter</type>
        <stem>down</stem>
        <lyric number="1" default-x="6.58" default-y="-49.50" relative-y="-30.00">
          <syllabic>single</syllabic>
          <text>さ</text>
          </lyric>
        </note>
      <note default-x="126.47" default-y="-5.00" dynamics="111.11">
        <pitch>
          <step>G</step>
          <octave>3</octave>
          </pitch>
        <duration>1</duration>
        <voice>1</voice>
        <type>eighth</type>
        <stem>down</stem>
        <beam number="1">begin</beam>
        <lyric number="1" default-x="6.58" default-y="-49.50" relative-y="-30.00">
          <syllabic>single</syllabic>
          <text>め</text>
          </lyric>
        </note>
      <note default-x="148.56" default-y="0.00" dynamics="111.11">
        <pitch>
          <step>A</step>
          <octave>3</octave>
          </pitch>
        <duration>1</duration>
        <tie type="start"/>
        <voice>1</voice>
        <type>eighth</type>
        <stem>down</stem>
        <beam number="1">end</beam>
        <notations>
          <tied type="start"/>
          </notations>
        <lyric number="1" default-x="6.58" default-y="-49.50" relative-y="-30.00">
          <syllabic>single</syllabic>
          <text>る</text>
          </lyric>
        </note>
      </measure>
    <measure number="5" width="127.51">
      <note default-x="10.00" default-y="0.00" dynamics="111.11">
        <pitch>
          <step>A</step>
          <octave>3</octave>
          </pitch>
        <duration>2</duration>
        <tie type="stop"/>
        <voice>1</voice>
        <type>quarter</type>
        <stem>down</stem>
        <notations>
          <tied type="stop"/>
          </notations>
        </note>
      <note>
        <rest/>
        <duration>2</duration>
        <voice>1</voice>
        <type>quarter</type>
        </note>
      <note default-x="67.95" default-y="-5.00" dynamics="111.11">
        <pitch>
          <step>G</step>
          <octave>3</octave>
          </pitch>
        <duration>2</duration>
        <voice>1</voice>
        <type>quarter</type>
        <stem>down</stem>
        <lyric number="1" default-x="6.58" default-y="-49.50" relative-y="-30.00">
          <syllabic>single</syllabic>
          <text>りゅ</text>
          </lyric>
        </note>
      <note default-x="96.93" default-y="0.00" dynamics="111.11">
        <pitch>
          <step>A</step>
          <octave>3</octave>
          </pitch>
        <duration>2</duration>
        <voice>1</voice>
        <type>quarter</type>
        <stem>down</stem>
        <lyric number="1" default-x="6.58" default-y="-49.50" relative-y="-30.00">
          <syllabic>single</syllabic>
          <text>う</text>
          </lyric>
        </note>
      </measure>
    <measure number="6" width="241.70">
      <note default-x="26.22" default-y="5.00" dynamics="111.11">
        <pitch>
          <step>B</step>
          <octave>3</octave>
          </pitch>
        <duration>2</duration>
        <voice>1</voice>
        <type>quarter</type>
        <stem>down</stem>
        <lyric number="1" default-x="6.58" default-y="-49.50" relative-y="-30.00">
          <syllabic>single</syllabic>
          <text>きゅー</text>
          </lyric>
        </note>
      <note default-x="73.75" default-y="5.00" dynamics="111.11">
        <pitch>
          <step>B</step>
          <octave>3</octave>
          </pitch>
        <duration>2</duration>
        <voice>1</voice>
        <type>quarter</type>
        <stem>down</stem>
        <lyric number="1" default-x="6.58" default-y="-49.50" relative-y="-30.00">
          <syllabic>single</syllabic>
          <text>おー</text>
          </lyric>
        </note>
      <note default-x="121.28" default-y="10.00" dynamics="111.11">
        <pitch>
          <step>C</step>
          <alter>1</alter>
          <octave>4</octave>
          </pitch>
        <duration>1</duration>
        <voice>1</voice>
        <type>eighth</type>
        <stem>down</stem>
        <beam number="1">begin</beam>
        <lyric number="1" default-x="6.58" default-y="-49.50" relative-y="-30.00">
          <syllabic>single</syllabic>
          <text>こ</text>
          </lyric>
        </note>
      <note default-x="150.98" default-y="15.00" dynamics="111.11">
        <pitch>
          <step>D</step>
          <octave>4</octave>
          </pitch>
        <duration>1</duration>
        <voice>1</voice>
        <type>eighth</type>
        <stem>down</stem>
        <beam number="1">continue</beam>
        <lyric number="1" default-x="6.58" default-y="-49.50" relative-y="-30.00">
          <syllabic>single</syllabic>
          <text>く</text>
          </lyric>
        </note>
      <note default-x="180.69" default-y="10.00" dynamics="111.11">
        <pitch>
          <step>C</step>
          <alter>1</alter>
          <octave>4</octave>
          </pitch>
        <duration>1</duration>
        <voice>1</voice>
        <type>eighth</type>
        <stem>down</stem>
        <beam number="1">continue</beam>
        <lyric number="1" default-x="6.58" default-y="-49.50" relative-y="-30.00">
          <syllabic>single</syllabic>
          <text>と</text>
          </lyric>
        </note>
      <note default-x="210.39" default-y="5.00" dynamics="111.11">
        <pitch>
          <step>B</step>
          <octave>3</octave>
          </pitch>
        <duration>1</duration>
        <voice>1</voice>
        <type>eighth</type>
        <stem>down</stem>
        <beam number="1">end</beam>
        <lyric number="1" default-x="6.58" default-y="-49.50" relative-y="-30.00">
          <syllabic>single</syllabic>
          <text>の</text>
          </lyric>
        </note>
      </measure>
    <measure number="7" width="458.34">
      <print new-system="yes">
        <system-layout>
          <system-margins>
            <left-margin>0.00</left-margin>
            <right-margin>0.00</right-margin>
            </system-margins>
          <system-distance>150.00</system-distance>
          </system-layout>
        </print>
      <note default-x="104.00" default-y="0.00" dynamics="111.11">
        <pitch>
          <step>A</step>
          <alter>1</alter>
          <octave>3</octave>
          </pitch>
        <duration>2</duration>
        <voice>1</voice>
        <type>quarter</type>
        <accidental>sharp</accidental>
        <stem>down</stem>
        <lyric number="1" default-x="6.58" default-y="-40.00" relative-y="-30.00">
          <syllabic>single</syllabic>
          <text>こー</text>
          </lyric>
        </note>
      <note default-x="182.39" default-y="20.00" dynamics="111.11">
        <pitch>
          <step>E</step>
          <octave>4</octave>
          </pitch>
        <duration>2</duration>
        <voice>1</voice>
        <type>quarter</type>
        <stem>down</stem>
        <lyric number="1" default-x="6.58" default-y="-40.00" relative-y="-30.00">
          <syllabic>single</syllabic>
          <text>お</text>
          </lyric>
        </note>
      <note default-x="260.77" default-y="15.00" dynamics="111.11">
        <pitch>
          <step>D</step>
          <octave>4</octave>
          </pitch>
        <duration>1</duration>
        <voice>1</voice>
        <type>eighth</type>
        <stem>down</stem>
        <beam number="1">begin</beam>
        <lyric number="1" default-x="6.58" default-y="-40.00" relative-y="-30.00">
          <syllabic>single</syllabic>
          <text>え</text>
          </lyric>
        </note>
      <note default-x="309.76" default-y="10.00" dynamics="111.11">
        <pitch>
          <step>C</step>
          <alter>1</alter>
          <octave>4</octave>
          </pitch>
        <duration>1</duration>
        <voice>1</voice>
        <type>eighth</type>
        <stem>down</stem>
        <beam number="1">continue</beam>
        <lyric number="1" default-x="6.58" default-y="-40.00" relative-y="-30.00">
          <syllabic>single</syllabic>
          <text>き</text>
          </lyric>
        </note>
      <note default-x="358.75" default-y="5.00" dynamics="111.11">
        <pitch>
          <step>B</step>
          <octave>3</octave>
          </pitch>
        <duration>1</duration>
        <voice>1</voice>
        <type>eighth</type>
        <stem>down</stem>
        <beam number="1">continue</beam>
        <lyric number="1" default-x="6.58" default-y="-40.00" relative-y="-30.00">
          <syllabic>single</syllabic>
          <text>に</text>
          </lyric>
        </note>
      <note default-x="407.75" default-y="10.00" dynamics="111.11">
        <pitch>
          <step>C</step>
          <alter>1</alter>
          <octave>4</octave>
          </pitch>
        <duration>1</duration>
        <voice>1</voice>
        <type>eighth</type>
        <stem>down</stem>
        <beam number="1">end</beam>
        <lyric number="1" default-x="6.58" default-y="-40.00" relative-y="-30.00">
          <syllabic>single</syllabic>
          <text>も</text>
          </lyric>
        </note>
      </measure>
    <measure number="8" width="354.23">
      <note default-x="13.80" default-y="15.00" dynamics="111.11">
        <pitch>
          <step>D</step>
          <octave>4</octave>
          </pitch>
        <duration>3</duration>
        <voice>1</voice>
        <type>quarter</type>
        <dot/>
        <stem>down</stem>
        <lyric number="1" default-x="6.58" default-y="-40.00" relative-y="-30.00">
          <syllabic>single</syllabic>
          <text>さ</text>
          </lyric>
        </note>
      <note default-x="114.71" default-y="0.00" dynamics="111.11">
        <pitch>
          <step>A</step>
          <alter>1</alter>
          <octave>3</octave>
          </pitch>
        <duration>1</duration>
        <voice>1</voice>
        <type>eighth</type>
        <accidental>sharp</accidental>
        <stem>down</stem>
        <lyric number="1" default-x="6.58" default-y="-40.00" relative-y="-30.00">
          <syllabic>single</syllabic>
          <text>ん</text>
          </lyric>
        </note>
      <note default-x="166.43" default-y="0.00" dynamics="111.11">
        <pitch>
          <step>A</step>
          <alter>1</alter>
          <octave>3</octave>
          </pitch>
        <duration>2</duration>
        <voice>1</voice>
        <type>quarter</type>
        <stem>down</stem>
        <lyric number="1" default-x="6.58" default-y="-40.00" relative-y="-30.00">
          <syllabic>single</syllabic>
          <text>か</text>
          </lyric>
        </note>
      <note default-x="249.19" default-y="15.00" dynamics="111.11">
        <pitch>
          <step>D</step>
          <octave>4</octave>
          </pitch>
        <duration>1</duration>
        <voice>1</voice>
        <type>eighth</type>
        <stem>down</stem>
        <beam number="1">begin</beam>
        <lyric number="1" default-x="6.58" default-y="-40.00" relative-y="-30.00">
          <syllabic>single</syllabic>
          <text>し</text>
          </lyric>
        </note>
      <note default-x="300.91" default-y="15.00" dynamics="111.11">
        <pitch>
          <step>D</step>
          <octave>4</octave>
          </pitch>
        <duration>1</duration>
        <tie type="start"/>
        <voice>1</voice>
        <type>eighth</type>
        <stem>down</stem>
        <beam number="1">end</beam>
        <notations>
          <tied type="start"/>
          </notations>
        <lyric number="1" default-x="6.58" default-y="-40.00" relative-y="-30.00">
          <syllabic>single</syllabic>
          <text>た</text>
          </lyric>
        </note>
      </measure>
    <measure number="9" width="264.60">
      <note default-x="13.80" default-y="15.00" dynamics="111.11">
        <pitch>
          <step>D</step>
          <octave>4</octave>
          </pitch>
        <duration>4</duration>
        <tie type="stop"/>
        <voice>1</voice>
        <type>half</type>
        <stem>down</stem>
        <notations>
          <tied type="stop"/>
          </notations>
        </note>
      <note>
        <rest/>
        <duration>4</duration>
        <voice>1</voice>
        <type>half</type>
        </note>
      <barline location="right">
        <bar-style>light-heavy</bar-style>
        </barline>
      </measure>
    </part>
  </score-partwise>
